<mxfile host="app.diagrams.net" modified="2021-12-09T12:26:10.982Z" agent="5.0 (Windows NT 10.0; Win64; x64) AppleWebKit/537.36 (KHTML, like Gecko) Chrome/96.0.4664.45 Safari/537.36" etag="htQvdXY7URa9ulHmO4cv" version="15.9.4" type="github">
  <diagram name="Page-1" id="9361dd3d-8414-5efd-6122-117bd74ce7a7">
    <mxGraphModel dx="1650" dy="878" grid="1" gridSize="10" guides="1" tooltips="1" connect="1" arrows="1" fold="1" page="0" pageScale="1.5" pageWidth="826" pageHeight="1169" background="none" math="0" shadow="0">
      <root>
        <mxCell id="0" />
        <mxCell id="1" parent="0" />
        <mxCell id="D8efox3JSMdk16xI1zfX-89" value="Actor" style="shape=umlActor;verticalLabelPosition=bottom;verticalAlign=top;html=1;" vertex="1" parent="1">
          <mxGeometry x="240" y="420" width="30" height="60" as="geometry" />
        </mxCell>
        <mxCell id="D8efox3JSMdk16xI1zfX-90" value="/subservices" style="html=1;" vertex="1" parent="1">
          <mxGeometry x="470" y="380" width="110" height="50" as="geometry" />
        </mxCell>
        <mxCell id="D8efox3JSMdk16xI1zfX-92" value="dispatch" style="html=1;verticalAlign=bottom;endArrow=block;rounded=0;entryX=0;entryY=0.5;entryDx=0;entryDy=0;" edge="1" parent="1" target="D8efox3JSMdk16xI1zfX-90">
          <mxGeometry width="80" relative="1" as="geometry">
            <mxPoint x="290" y="460" as="sourcePoint" />
            <mxPoint x="370" y="460" as="targetPoint" />
          </mxGeometry>
        </mxCell>
        <mxCell id="D8efox3JSMdk16xI1zfX-95" value="&lt;p style=&quot;margin: 6px 0px 0px&quot;&gt;&lt;b&gt;Subservice&amp;nbsp;&lt;/b&gt;&lt;/p&gt;&lt;p style=&quot;margin: 6px 0px 0px&quot;&gt;&lt;b&gt;RestController&lt;/b&gt;&lt;/p&gt;&lt;div&gt;&lt;b&gt;&lt;br&gt;&lt;/b&gt;&lt;/div&gt;" style="html=1;" vertex="1" parent="1">
          <mxGeometry x="650" y="370" width="110" height="50" as="geometry" />
        </mxCell>
        <mxCell id="D8efox3JSMdk16xI1zfX-97" value="DB Proxy" style="html=1;" vertex="1" parent="1">
          <mxGeometry x="870" y="480" width="110" height="50" as="geometry" />
        </mxCell>
        <mxCell id="D8efox3JSMdk16xI1zfX-102" value="/parameter" style="html=1;" vertex="1" parent="1">
          <mxGeometry x="470" y="490" width="110" height="50" as="geometry" />
        </mxCell>
        <mxCell id="D8efox3JSMdk16xI1zfX-103" value="/bulkload" style="html=1;" vertex="1" parent="1">
          <mxGeometry x="470" y="650" width="110" height="50" as="geometry" />
        </mxCell>
        <mxCell id="D8efox3JSMdk16xI1zfX-104" value="/metric" style="html=1;" vertex="1" parent="1">
          <mxGeometry x="470" y="570" width="110" height="50" as="geometry" />
        </mxCell>
        <mxCell id="D8efox3JSMdk16xI1zfX-105" value="&lt;p style=&quot;margin: 6px 0px 0px&quot;&gt;&lt;b&gt;Parameter&lt;/b&gt;&lt;/p&gt;&lt;p style=&quot;margin: 6px 0px 0px&quot;&gt;&lt;b&gt;RestController&lt;/b&gt;&lt;br&gt;&lt;/p&gt;&lt;div&gt;&lt;b&gt;&lt;br&gt;&lt;/b&gt;&lt;/div&gt;" style="html=1;" vertex="1" parent="1">
          <mxGeometry x="660" y="490" width="110" height="50" as="geometry" />
        </mxCell>
        <mxCell id="D8efox3JSMdk16xI1zfX-106" value="&lt;p style=&quot;margin: 6px 0px 0px&quot;&gt;&lt;b&gt;Metric&lt;/b&gt;&lt;/p&gt;&lt;p style=&quot;margin: 6px 0px 0px&quot;&gt;&lt;b&gt;RestController&lt;/b&gt;&lt;/p&gt;&lt;div&gt;&lt;b&gt;&lt;br&gt;&lt;/b&gt;&lt;/div&gt;" style="html=1;" vertex="1" parent="1">
          <mxGeometry x="660" y="570" width="110" height="50" as="geometry" />
        </mxCell>
        <mxCell id="D8efox3JSMdk16xI1zfX-107" value="&lt;p style=&quot;margin: 6px 0px 0px&quot;&gt;&lt;b&gt;Bulkload&lt;/b&gt;&lt;/p&gt;&lt;p style=&quot;margin: 6px 0px 0px&quot;&gt;&lt;b&gt;RestController&lt;/b&gt;&lt;/p&gt;&lt;div&gt;&lt;b&gt;&lt;br&gt;&lt;/b&gt;&lt;/div&gt;" style="html=1;" vertex="1" parent="1">
          <mxGeometry x="660" y="650" width="110" height="50" as="geometry" />
        </mxCell>
        <mxCell id="D8efox3JSMdk16xI1zfX-115" value="Use" style="endArrow=open;endSize=12;dashed=1;html=1;rounded=0;entryX=0;entryY=0.5;entryDx=0;entryDy=0;" edge="1" parent="1" target="D8efox3JSMdk16xI1zfX-97">
          <mxGeometry x="-0.0639" y="-2" width="160" relative="1" as="geometry">
            <mxPoint x="770" y="600" as="sourcePoint" />
            <mxPoint x="930" y="600" as="targetPoint" />
            <mxPoint as="offset" />
          </mxGeometry>
        </mxCell>
        <mxCell id="D8efox3JSMdk16xI1zfX-117" value="Use" style="endArrow=open;endSize=12;dashed=1;html=1;rounded=0;exitX=1;exitY=0.5;exitDx=0;exitDy=0;entryX=0.5;entryY=0;entryDx=0;entryDy=0;" edge="1" parent="1" source="D8efox3JSMdk16xI1zfX-95" target="D8efox3JSMdk16xI1zfX-97">
          <mxGeometry width="160" relative="1" as="geometry">
            <mxPoint x="910" y="470" as="sourcePoint" />
            <mxPoint x="1070" y="470" as="targetPoint" />
          </mxGeometry>
        </mxCell>
        <mxCell id="D8efox3JSMdk16xI1zfX-118" value="Use" style="endArrow=open;endSize=12;dashed=1;html=1;rounded=0;exitX=1;exitY=0.5;exitDx=0;exitDy=0;entryX=0;entryY=0.25;entryDx=0;entryDy=0;" edge="1" parent="1" source="D8efox3JSMdk16xI1zfX-105" target="D8efox3JSMdk16xI1zfX-97">
          <mxGeometry width="160" relative="1" as="geometry">
            <mxPoint x="910" y="470" as="sourcePoint" />
            <mxPoint x="1070" y="470" as="targetPoint" />
          </mxGeometry>
        </mxCell>
        <mxCell id="D8efox3JSMdk16xI1zfX-119" value="Use" style="endArrow=open;endSize=12;dashed=1;html=1;rounded=0;entryX=0.25;entryY=1;entryDx=0;entryDy=0;exitX=1;exitY=0.5;exitDx=0;exitDy=0;" edge="1" parent="1" source="D8efox3JSMdk16xI1zfX-107" target="D8efox3JSMdk16xI1zfX-97">
          <mxGeometry x="-0.0639" y="-2" width="160" relative="1" as="geometry">
            <mxPoint x="780" y="610" as="sourcePoint" />
            <mxPoint x="880" y="515" as="targetPoint" />
            <mxPoint as="offset" />
          </mxGeometry>
        </mxCell>
        <mxCell id="D8efox3JSMdk16xI1zfX-120" value="dispatch" style="html=1;verticalAlign=bottom;endArrow=block;rounded=0;entryX=-0.007;entryY=0.384;entryDx=0;entryDy=0;entryPerimeter=0;" edge="1" parent="1" target="D8efox3JSMdk16xI1zfX-102">
          <mxGeometry width="80" relative="1" as="geometry">
            <mxPoint x="300" y="470" as="sourcePoint" />
            <mxPoint x="480" y="415" as="targetPoint" />
          </mxGeometry>
        </mxCell>
        <mxCell id="D8efox3JSMdk16xI1zfX-121" value="dispatch" style="html=1;verticalAlign=bottom;endArrow=block;rounded=0;entryX=0;entryY=0.5;entryDx=0;entryDy=0;" edge="1" parent="1" target="D8efox3JSMdk16xI1zfX-104">
          <mxGeometry width="80" relative="1" as="geometry">
            <mxPoint x="310" y="480" as="sourcePoint" />
            <mxPoint x="479.23" y="519.2" as="targetPoint" />
          </mxGeometry>
        </mxCell>
        <mxCell id="D8efox3JSMdk16xI1zfX-122" value="dispatch" style="html=1;verticalAlign=bottom;endArrow=block;rounded=0;entryX=-0.015;entryY=0.608;entryDx=0;entryDy=0;entryPerimeter=0;" edge="1" parent="1" target="D8efox3JSMdk16xI1zfX-103">
          <mxGeometry width="80" relative="1" as="geometry">
            <mxPoint x="320" y="490" as="sourcePoint" />
            <mxPoint x="480" y="605" as="targetPoint" />
          </mxGeometry>
        </mxCell>
        <mxCell id="D8efox3JSMdk16xI1zfX-126" value="" style="endArrow=block;dashed=1;endFill=0;endSize=12;html=1;rounded=0;exitX=1;exitY=0.5;exitDx=0;exitDy=0;entryX=0;entryY=0.5;entryDx=0;entryDy=0;" edge="1" parent="1" source="D8efox3JSMdk16xI1zfX-90" target="D8efox3JSMdk16xI1zfX-95">
          <mxGeometry width="160" relative="1" as="geometry">
            <mxPoint x="910" y="470" as="sourcePoint" />
            <mxPoint x="1070" y="470" as="targetPoint" />
          </mxGeometry>
        </mxCell>
        <mxCell id="D8efox3JSMdk16xI1zfX-127" value="" style="endArrow=block;dashed=1;endFill=0;endSize=12;html=1;rounded=0;exitX=1;exitY=0.5;exitDx=0;exitDy=0;entryX=0;entryY=0.5;entryDx=0;entryDy=0;" edge="1" parent="1" source="D8efox3JSMdk16xI1zfX-102" target="D8efox3JSMdk16xI1zfX-105">
          <mxGeometry width="160" relative="1" as="geometry">
            <mxPoint x="590" y="415" as="sourcePoint" />
            <mxPoint x="660" y="405" as="targetPoint" />
          </mxGeometry>
        </mxCell>
        <mxCell id="D8efox3JSMdk16xI1zfX-128" value="" style="endArrow=block;dashed=1;endFill=0;endSize=12;html=1;rounded=0;exitX=1;exitY=0.5;exitDx=0;exitDy=0;entryX=0;entryY=0.5;entryDx=0;entryDy=0;" edge="1" parent="1" source="D8efox3JSMdk16xI1zfX-104" target="D8efox3JSMdk16xI1zfX-106">
          <mxGeometry width="160" relative="1" as="geometry">
            <mxPoint x="590" y="525" as="sourcePoint" />
            <mxPoint x="670" y="525" as="targetPoint" />
          </mxGeometry>
        </mxCell>
        <mxCell id="D8efox3JSMdk16xI1zfX-129" value="" style="endArrow=block;dashed=1;endFill=0;endSize=12;html=1;rounded=0;exitX=1;exitY=0.5;exitDx=0;exitDy=0;entryX=0;entryY=0.5;entryDx=0;entryDy=0;" edge="1" parent="1" source="D8efox3JSMdk16xI1zfX-103" target="D8efox3JSMdk16xI1zfX-107">
          <mxGeometry width="160" relative="1" as="geometry">
            <mxPoint x="590" y="605" as="sourcePoint" />
            <mxPoint x="670" y="605" as="targetPoint" />
          </mxGeometry>
        </mxCell>
      </root>
    </mxGraphModel>
  </diagram>
</mxfile>
